STARTFONT 2.1
FONT d12bluci
SIZE 14 78 78
FONTBOUNDINGBOX 15 15 0 -3
STARTPROPERTIES 4
Copyright "Copyright (c) 1988 AT&T, Inc"
FONT_ASCENT 12
FONT_DESCENT 3
DEFAULT_CHAR 32
ENDPROPERTIES
CHARS 97
STARTCHAR C001
ENCODING 1
SWIDTH 140 0
DWIDTH 10 0
BBX 10 15 0 -3
BITMAP
0000
0000
0000
0000
0000
0000
0000
0000
0000
0000
0000
0000
0000
0000
0000
ENDCHAR
STARTCHAR C002
ENCODING 2
SWIDTH 168 0
DWIDTH 12 0
BBX 12 15 0 -3
BITMAP
0000
0000
0000
0000
0660
0cc0
1980
3320
6660
4cc0
1980
3300
6600
c000
0000
ENDCHAR
STARTCHAR C040
ENCODING 32
SWIDTH 98 0
DWIDTH 7 0
BBX 7 15 0 -3
BITMAP
00
00
00
00
00
00
00
00
00
00
00
00
00
00
00
ENDCHAR
STARTCHAR !
ENCODING 33
SWIDTH 84 0
DWIDTH 6 0
BBX 6 15 0 -3
BITMAP
00
00
00
38
38
38
38
38
18
18
00
38
38
00
00
ENDCHAR
STARTCHAR "
ENCODING 34
SWIDTH 126 0
DWIDTH 9 0
BBX 9 15 0 -3
BITMAP
0000
0000
7700
7700
3300
6600
0000
0000
0000
0000
0000
0000
0000
0000
0000
ENDCHAR
STARTCHAR #
ENCODING 35
SWIDTH 140 0
DWIDTH 10 0
BBX 10 15 0 -3
BITMAP
0000
0000
0000
3300
3300
7f80
3300
3300
3300
7f80
3300
3300
3300
0000
0000
ENDCHAR
STARTCHAR $
ENCODING 36
SWIDTH 140 0
DWIDTH 10 0
BBX 10 15 0 -3
BITMAP
0000
0000
0400
3f00
7580
7400
7800
3e00
1f00
0780
0b80
6b80
3f00
0800
0000
ENDCHAR
STARTCHAR %
ENCODING 37
SWIDTH 182 0
DWIDTH 13 0
BBX 13 15 0 -3
BITMAP
0000
0000
0000
3c30
6660
66c0
3d80
0300
0600
0de0
1b30
3330
61e0
0000
0000
ENDCHAR
STARTCHAR &
ENCODING 38
SWIDTH 168 0
DWIDTH 12 0
BBX 12 15 0 -3
BITMAP
0000
0000
0000
3f00
7380
7380
3b00
1e60
3760
73c0
71c0
79e0
3e60
0000
0000
ENDCHAR
STARTCHAR '
ENCODING 39
SWIDTH 70 0
DWIDTH 5 0
BBX 5 15 0 -3
BITMAP
00
00
70
70
30
60
00
00
00
00
00
00
00
00
00
ENDCHAR
STARTCHAR (
ENCODING 40
SWIDTH 98 0
DWIDTH 7 0
BBX 7 15 0 -3
BITMAP
00
00
0c
38
70
70
70
70
70
70
70
70
38
0c
00
ENDCHAR
STARTCHAR )
ENCODING 41
SWIDTH 98 0
DWIDTH 7 0
BBX 7 15 0 -3
BITMAP
00
00
70
38
1c
1c
1c
1c
1c
1c
1c
1c
38
70
00
ENDCHAR
STARTCHAR *
ENCODING 42
SWIDTH 126 0
DWIDTH 9 0
BBX 9 15 0 -3
BITMAP
0000
0000
0000
0800
6b00
3e00
1c00
3e00
6b00
0800
0000
0000
0000
0000
0000
ENDCHAR
STARTCHAR +
ENCODING 43
SWIDTH 140 0
DWIDTH 10 0
BBX 10 15 0 -3
BITMAP
0000
0000
0000
0000
0c00
0c00
0c00
7f80
7f80
0c00
0c00
0c00
0000
0000
0000
ENDCHAR
STARTCHAR ,
ENCODING 44
SWIDTH 70 0
DWIDTH 5 0
BBX 5 15 0 -3
BITMAP
00
00
00
00
00
00
00
00
00
00
00
70
70
30
60
ENDCHAR
STARTCHAR -
ENCODING 45
SWIDTH 140 0
DWIDTH 10 0
BBX 10 15 0 -3
BITMAP
0000
0000
0000
0000
0000
0000
0000
7f80
7f80
0000
0000
0000
0000
0000
0000
ENDCHAR
STARTCHAR .
ENCODING 46
SWIDTH 70 0
DWIDTH 5 0
BBX 5 15 0 -3
BITMAP
00
00
00
00
00
00
00
00
00
00
00
70
70
00
00
ENDCHAR
STARTCHAR /
ENCODING 47
SWIDTH 126 0
DWIDTH 9 0
BBX 9 15 0 -3
BITMAP
0000
0000
0000
0300
0700
0600
0e00
0c00
0c00
1c00
1800
3800
3000
0000
0000
ENDCHAR
STARTCHAR 0
ENCODING 48
SWIDTH 140 0
DWIDTH 10 0
BBX 10 15 0 -3
BITMAP
0000
0000
0000
1e00
3300
7380
7380
7380
7380
7380
7380
3300
1e00
0000
0000
ENDCHAR
STARTCHAR 1
ENCODING 49
SWIDTH 140 0
DWIDTH 10 0
BBX 10 15 0 -3
BITMAP
0000
0000
0000
0e00
3e00
0e00
0e00
0e00
0e00
0e00
0e00
0e00
0e00
0000
0000
ENDCHAR
STARTCHAR 2
ENCODING 50
SWIDTH 140 0
DWIDTH 10 0
BBX 10 15 0 -3
BITMAP
0000
0000
0000
3f00
6380
0380
0380
0700
0e00
1800
3000
7f80
7f80
0000
0000
ENDCHAR
STARTCHAR 3
ENCODING 51
SWIDTH 140 0
DWIDTH 10 0
BBX 10 15 0 -3
BITMAP
0000
0000
0000
3f00
6380
0380
0700
1e00
0700
0380
0380
6380
3f00
0000
0000
ENDCHAR
STARTCHAR 4
ENCODING 52
SWIDTH 140 0
DWIDTH 10 0
BBX 10 15 0 -3
BITMAP
0000
0000
0000
0f00
1700
3700
2700
6700
6700
7f80
0700
0700
0700
0000
0000
ENDCHAR
STARTCHAR 5
ENCODING 53
SWIDTH 140 0
DWIDTH 10 0
BBX 10 15 0 -3
BITMAP
0000
0000
0000
7f80
7f80
6000
6000
7f00
0780
0380
0380
6380
3f00
0000
0000
ENDCHAR
STARTCHAR 6
ENCODING 54
SWIDTH 140 0
DWIDTH 10 0
BBX 10 15 0 -3
BITMAP
0000
0000
0000
1f00
3980
7000
7000
7f00
7380
7380
7380
7380
3f00
0000
0000
ENDCHAR
STARTCHAR 7
ENCODING 55
SWIDTH 140 0
DWIDTH 10 0
BBX 10 15 0 -3
BITMAP
0000
0000
0000
7f80
7f80
0180
0300
0600
0c00
1800
3800
3800
3800
0000
0000
ENDCHAR
STARTCHAR 8
ENCODING 56
SWIDTH 140 0
DWIDTH 10 0
BBX 10 15 0 -3
BITMAP
0000
0000
0000
3f00
7380
7380
3b00
1e00
3f00
7780
7380
7380
3f00
0000
0000
ENDCHAR
STARTCHAR 9
ENCODING 57
SWIDTH 140 0
DWIDTH 10 0
BBX 10 15 0 -3
BITMAP
0000
0000
0000
3f00
7380
7380
7380
7380
3f80
0380
0380
6700
3e00
0000
0000
ENDCHAR
STARTCHAR :
ENCODING 58
SWIDTH 70 0
DWIDTH 5 0
BBX 5 15 0 -3
BITMAP
00
00
00
00
00
70
70
00
00
00
00
70
70
00
00
ENDCHAR
STARTCHAR ;
ENCODING 59
SWIDTH 70 0
DWIDTH 5 0
BBX 5 15 0 -3
BITMAP
00
00
00
00
00
70
70
00
00
00
00
70
70
30
60
ENDCHAR
STARTCHAR <
ENCODING 60
SWIDTH 126 0
DWIDTH 9 0
BBX 9 15 0 -3
BITMAP
0000
0000
0000
0000
0700
0e00
1c00
3800
1c00
0e00
0700
0000
0000
0000
0000
ENDCHAR
STARTCHAR =
ENCODING 61
SWIDTH 140 0
DWIDTH 10 0
BBX 10 15 0 -3
BITMAP
0000
0000
0000
0000
0000
0000
7f80
7f80
0000
7f80
7f80
0000
0000
0000
0000
ENDCHAR
STARTCHAR >
ENCODING 62
SWIDTH 126 0
DWIDTH 9 0
BBX 9 15 0 -3
BITMAP
0000
0000
0000
0000
3800
1c00
0e00
0700
0e00
1c00
3800
0000
0000
0000
0000
ENDCHAR
STARTCHAR ?
ENCODING 63
SWIDTH 126 0
DWIDTH 9 0
BBX 9 15 0 -3
BITMAP
0000
0000
0000
3e00
6700
0700
0700
0e00
1800
1800
0000
1c00
1c00
0000
0000
ENDCHAR
STARTCHAR @
ENCODING 64
SWIDTH 168 0
DWIDTH 12 0
BBX 12 15 0 -3
BITMAP
0000
0000
0000
1f80
30c0
60c0
67c0
6cc0
6cc0
6cc0
6760
3000
1fc0
0000
0000
ENDCHAR
STARTCHAR A
ENCODING 65
SWIDTH 140 0
DWIDTH 10 0
BBX 10 15 0 -3
BITMAP
0000
0000
0000
1e00
1e00
3700
3700
3700
6380
7f80
6380
6380
6380
0000
0000
ENDCHAR
STARTCHAR B
ENCODING 66
SWIDTH 154 0
DWIDTH 11 0
BBX 11 15 0 -3
BITMAP
0000
0000
0000
3f80
39c0
39c0
3980
3f00
3980
39c0
39c0
39c0
3f80
0000
0000
ENDCHAR
STARTCHAR C
ENCODING 67
SWIDTH 154 0
DWIDTH 11 0
BBX 11 15 0 -3
BITMAP
0000
0000
0000
0f80
39c0
7000
7000
7000
7000
7000
7000
38c0
0f80
0000
0000
ENDCHAR
STARTCHAR D
ENCODING 68
SWIDTH 168 0
DWIDTH 12 0
BBX 12 15 0 -3
BITMAP
0000
0000
0000
3f00
39c0
38e0
38e0
38e0
38e0
38e0
38e0
39c0
3f00
0000
0000
ENDCHAR
STARTCHAR E
ENCODING 69
SWIDTH 140 0
DWIDTH 10 0
BBX 10 15 0 -3
BITMAP
0000
0000
0000
3f80
3800
3800
3800
3f00
3800
3800
3800
3800
3f80
0000
0000
ENDCHAR
STARTCHAR F
ENCODING 70
SWIDTH 140 0
DWIDTH 10 0
BBX 10 15 0 -3
BITMAP
0000
0000
0000
3f80
3800
3800
3800
3f00
3800
3800
3800
3800
3800
0000
0000
ENDCHAR
STARTCHAR G
ENCODING 71
SWIDTH 154 0
DWIDTH 11 0
BBX 11 15 0 -3
BITMAP
0000
0000
0000
0f80
39c0
7000
7000
7000
71c0
71c0
71c0
39c0
0fc0
0000
0000
ENDCHAR
STARTCHAR H
ENCODING 72
SWIDTH 168 0
DWIDTH 12 0
BBX 12 15 0 -3
BITMAP
0000
0000
0000
38e0
38e0
38e0
38e0
3fe0
38e0
38e0
38e0
38e0
38e0
0000
0000
ENDCHAR
STARTCHAR I
ENCODING 73
SWIDTH 84 0
DWIDTH 6 0
BBX 6 15 0 -3
BITMAP
00
00
00
38
38
38
38
38
38
38
38
38
38
00
00
ENDCHAR
STARTCHAR J
ENCODING 74
SWIDTH 84 0
DWIDTH 6 0
BBX 6 15 0 -3
BITMAP
00
00
00
38
38
38
38
38
38
38
38
38
30
30
e0
ENDCHAR
STARTCHAR K
ENCODING 75
SWIDTH 168 0
DWIDTH 12 0
BBX 12 15 0 -3
BITMAP
0000
0000
0000
3860
38c0
3980
3b00
3e00
3b00
3b80
39c0
38e0
3860
0000
0000
ENDCHAR
STARTCHAR L
ENCODING 76
SWIDTH 140 0
DWIDTH 10 0
BBX 10 15 0 -3
BITMAP
0000
0000
0000
3800
3800
3800
3800
3800
3800
3800
3800
3800
3f80
0000
0000
ENDCHAR
STARTCHAR M
ENCODING 77
SWIDTH 210 0
DWIDTH 15 0
BBX 15 15 0 -3
BITMAP
0000
0000
0000
3c3c
3c3c
3e7c
365c
365c
37dc
339c
339c
301c
301c
0000
0000
ENDCHAR
STARTCHAR N
ENCODING 78
SWIDTH 182 0
DWIDTH 13 0
BBX 13 15 0 -3
BITMAP
0000
0000
0000
3830
3c30
3e30
3730
3730
33b0
33b0
31f0
30f0
3070
0000
0000
ENDCHAR
STARTCHAR O
ENCODING 79
SWIDTH 168 0
DWIDTH 12 0
BBX 12 15 0 -3
BITMAP
0000
0000
0000
0f00
39c0
70e0
70e0
70e0
70e0
70e0
70e0
39c0
0f00
0000
0000
ENDCHAR
STARTCHAR P
ENCODING 80
SWIDTH 154 0
DWIDTH 11 0
BBX 11 15 0 -3
BITMAP
0000
0000
0000
3f80
39c0
39c0
39c0
39c0
3980
3e00
3800
3800
3800
0000
0000
ENDCHAR
STARTCHAR Q
ENCODING 81
SWIDTH 168 0
DWIDTH 12 0
BBX 12 15 0 -3
BITMAP
0000
0000
0000
0f00
39c0
70e0
70e0
70e0
70e0
70e0
70e0
39c0
0f80
01c0
00e0
ENDCHAR
STARTCHAR R
ENCODING 82
SWIDTH 168 0
DWIDTH 12 0
BBX 12 15 0 -3
BITMAP
0000
0000
0000
3f80
39c0
39c0
39c0
3980
3f00
3b80
39c0
39e0
38e0
0000
0000
ENDCHAR
STARTCHAR S
ENCODING 83
SWIDTH 126 0
DWIDTH 9 0
BBX 9 15 0 -3
BITMAP
0000
0000
0000
1e00
3300
7000
7800
7e00
3f00
0f00
0700
6600
3c00
0000
0000
ENDCHAR
STARTCHAR T
ENCODING 84
SWIDTH 140 0
DWIDTH 10 0
BBX 10 15 0 -3
BITMAP
0000
0000
0000
ff80
1c00
1c00
1c00
1c00
1c00
1c00
1c00
1c00
1c00
0000
0000
ENDCHAR
STARTCHAR U
ENCODING 85
SWIDTH 168 0
DWIDTH 12 0
BBX 12 15 0 -3
BITMAP
0000
0000
0000
3860
3860
3860
3860
3860
3860
3860
1840
1cc0
0f80
0000
0000
ENDCHAR
STARTCHAR V
ENCODING 86
SWIDTH 140 0
DWIDTH 10 0
BBX 10 15 0 -3
BITMAP
0000
0000
0000
7180
7180
7180
7180
7180
3b00
3b00
3b00
1e00
1e00
0000
0000
ENDCHAR
STARTCHAR W
ENCODING 87
SWIDTH 210 0
DWIDTH 15 0
BBX 15 15 0 -3
BITMAP
0000
0000
0000
700c
700c
718c
718c
3998
3bd8
3ad8
3ad8
1c70
1c70
0000
0000
ENDCHAR
STARTCHAR X
ENCODING 88
SWIDTH 154 0
DWIDTH 11 0
BBX 11 15 0 -3
BITMAP
0000
0000
0000
38c0
38c0
38c0
1d80
0f00
0f00
1b80
31c0
31c0
31c0
0000
0000
ENDCHAR
STARTCHAR Y
ENCODING 89
SWIDTH 154 0
DWIDTH 11 0
BBX 11 15 0 -3
BITMAP
0000
0000
0000
70c0
70c0
70c0
3980
3980
1f00
0e00
0e00
0e00
0e00
0000
0000
ENDCHAR
STARTCHAR Z
ENCODING 90
SWIDTH 154 0
DWIDTH 11 0
BBX 11 15 0 -3
BITMAP
0000
0000
0000
3fc0
01c0
01c0
0380
0700
0e00
1c00
3800
3800
3fc0
0000
0000
ENDCHAR
STARTCHAR [
ENCODING 91
SWIDTH 98 0
DWIDTH 7 0
BBX 7 15 0 -3
BITMAP
00
00
7c
70
70
70
70
70
70
70
70
70
70
7c
00
ENDCHAR
STARTCHAR \
ENCODING 92
SWIDTH 112 0
DWIDTH 8 0
BBX 8 15 0 -3
BITMAP
00
00
00
60
70
30
38
18
18
1c
0c
0e
06
00
00
ENDCHAR
STARTCHAR ]
ENCODING 93
SWIDTH 98 0
DWIDTH 7 0
BBX 7 15 0 -3
BITMAP
00
00
7c
1c
1c
1c
1c
1c
1c
1c
1c
1c
1c
7c
00
ENDCHAR
STARTCHAR ^
ENCODING 94
SWIDTH 140 0
DWIDTH 10 0
BBX 10 15 0 -3
BITMAP
0000
0000
0000
0c00
0c00
1e00
3300
3300
6180
6180
0000
0000
0000
0000
0000
ENDCHAR
STARTCHAR _
ENCODING 95
SWIDTH 140 0
DWIDTH 10 0
BBX 10 15 0 -3
BITMAP
0000
0000
0000
0000
0000
0000
0000
0000
0000
0000
0000
0000
0000
7f80
7f80
ENDCHAR
STARTCHAR `
ENCODING 96
SWIDTH 84 0
DWIDTH 6 0
BBX 6 15 0 -3
BITMAP
00
00
18
30
38
38
00
00
00
00
00
00
00
00
00
ENDCHAR
STARTCHAR a
ENCODING 97
SWIDTH 140 0
DWIDTH 10 0
BBX 10 15 0 -3
BITMAP
0000
0000
0000
0000
0000
3c00
6600
0700
3f00
6700
e700
e700
7b80
0000
0000
ENDCHAR
STARTCHAR b
ENCODING 98
SWIDTH 140 0
DWIDTH 10 0
BBX 10 15 0 -3
BITMAP
0000
0000
7000
7000
7000
7700
7b80
7380
7380
7380
7380
7300
7e00
0000
0000
ENDCHAR
STARTCHAR c
ENCODING 99
SWIDTH 126 0
DWIDTH 9 0
BBX 9 15 0 -3
BITMAP
0000
0000
0000
0000
0000
1e00
3300
7000
7000
7000
7000
3b00
1e00
0000
0000
ENDCHAR
STARTCHAR d
ENCODING 100
SWIDTH 140 0
DWIDTH 10 0
BBX 10 15 0 -3
BITMAP
0000
0000
0380
0380
0380
1f80
3380
7380
7380
7380
7380
7780
3b80
0000
0000
ENDCHAR
STARTCHAR e
ENCODING 101
SWIDTH 140 0
DWIDTH 10 0
BBX 10 15 0 -3
BITMAP
0000
0000
0000
0000
0000
1f00
3380
7380
7f80
7000
7000
3980
1f00
0000
0000
ENDCHAR
STARTCHAR f
ENCODING 102
SWIDTH 126 0
DWIDTH 9 0
BBX 9 15 0 -3
BITMAP
0000
0000
0f00
1800
3800
7e00
3800
3800
3800
3800
3800
3800
3800
0000
0000
ENDCHAR
STARTCHAR g
ENCODING 103
SWIDTH 140 0
DWIDTH 10 0
BBX 10 15 0 -3
BITMAP
0000
0000
0000
0000
0000
1f80
3380
7380
7380
7380
7780
3b80
0380
6380
3f00
ENDCHAR
STARTCHAR h
ENCODING 104
SWIDTH 140 0
DWIDTH 10 0
BBX 10 15 0 -3
BITMAP
0000
0000
7000
7000
7000
7700
7b80
7380
7380
7380
7380
7380
7380
0000
0000
ENDCHAR
STARTCHAR i
ENCODING 105
SWIDTH 70 0
DWIDTH 5 0
BBX 5 15 0 -3
BITMAP
00
00
70
70
00
70
70
70
70
70
70
70
70
00
00
ENDCHAR
STARTCHAR j
ENCODING 106
SWIDTH 84 0
DWIDTH 6 0
BBX 6 15 0 -3
BITMAP
00
00
38
38
00
38
38
38
38
38
38
38
38
30
e0
ENDCHAR
STARTCHAR k
ENCODING 107
SWIDTH 140 0
DWIDTH 10 0
BBX 10 15 0 -3
BITMAP
0000
0000
7000
7000
7000
7180
7300
7600
7c00
7600
7700
7380
7180
0000
0000
ENDCHAR
STARTCHAR l
ENCODING 108
SWIDTH 70 0
DWIDTH 5 0
BBX 5 15 0 -3
BITMAP
00
00
70
70
70
70
70
70
70
70
70
70
70
00
00
ENDCHAR
STARTCHAR m
ENCODING 109
SWIDTH 210 0
DWIDTH 15 0
BBX 15 15 0 -3
BITMAP
0000
0000
0000
0000
0000
7778
7bdc
739c
739c
739c
739c
739c
739c
0000
0000
ENDCHAR
STARTCHAR n
ENCODING 110
SWIDTH 140 0
DWIDTH 10 0
BBX 10 15 0 -3
BITMAP
0000
0000
0000
0000
0000
7700
7b80
7380
7380
7380
7380
7380
7380
0000
0000
ENDCHAR
STARTCHAR o
ENCODING 111
SWIDTH 140 0
DWIDTH 10 0
BBX 10 15 0 -3
BITMAP
0000
0000
0000
0000
0000
1e00
3300
7380
7380
7380
7380
3300
1e00
0000
0000
ENDCHAR
STARTCHAR p
ENCODING 112
SWIDTH 140 0
DWIDTH 10 0
BBX 10 15 0 -3
BITMAP
0000
0000
0000
0000
0000
7700
7b80
7380
7380
7380
7380
7300
7e00
7000
7000
ENDCHAR
STARTCHAR q
ENCODING 113
SWIDTH 140 0
DWIDTH 10 0
BBX 10 15 0 -3
BITMAP
0000
0000
0000
0000
0000
1f80
3380
7380
7380
7380
7380
7780
3b80
0380
0380
ENDCHAR
STARTCHAR r
ENCODING 114
SWIDTH 112 0
DWIDTH 8 0
BBX 8 15 0 -3
BITMAP
00
00
00
00
00
76
7e
70
70
70
70
70
70
00
00
ENDCHAR
STARTCHAR s
ENCODING 115
SWIDTH 126 0
DWIDTH 9 0
BBX 9 15 0 -3
BITMAP
0000
0000
0000
0000
0000
1e00
3300
7800
7e00
3f00
0f00
6600
3c00
0000
0000
ENDCHAR
STARTCHAR t
ENCODING 116
SWIDTH 98 0
DWIDTH 7 0
BBX 7 15 0 -3
BITMAP
00
00
00
30
70
fc
70
70
70
70
70
70
3c
00
00
ENDCHAR
STARTCHAR u
ENCODING 117
SWIDTH 140 0
DWIDTH 10 0
BBX 10 15 0 -3
BITMAP
0000
0000
0000
0000
0000
7380
7380
7380
7380
7380
7380
7780
3b80
0000
0000
ENDCHAR
STARTCHAR v
ENCODING 118
SWIDTH 126 0
DWIDTH 9 0
BBX 9 15 0 -3
BITMAP
0000
0000
0000
0000
0000
e300
e300
e300
7600
7600
7600
3c00
3c00
0000
0000
ENDCHAR
STARTCHAR w
ENCODING 119
SWIDTH 182 0
DWIDTH 13 0
BBX 13 15 0 -3
BITMAP
0000
0000
0000
0000
0000
7030
7330
7330
77b0
35a0
3de0
38e0
38e0
0000
0000
ENDCHAR
STARTCHAR x
ENCODING 120
SWIDTH 126 0
DWIDTH 9 0
BBX 9 15 0 -3
BITMAP
0000
0000
0000
0000
0000
7300
7300
3e00
1c00
1c00
3e00
6700
6700
0000
0000
ENDCHAR
STARTCHAR y
ENCODING 121
SWIDTH 126 0
DWIDTH 9 0
BBX 9 15 0 -3
BITMAP
0000
0000
0000
0000
0000
e300
e300
e300
7600
7600
3c00
1c00
1800
3800
7000
ENDCHAR
STARTCHAR z
ENCODING 122
SWIDTH 126 0
DWIDTH 9 0
BBX 9 15 0 -3
BITMAP
0000
0000
0000
0000
0000
7f00
0700
0f00
1e00
3c00
7800
7000
7f00
0000
0000
ENDCHAR
STARTCHAR {
ENCODING 123
SWIDTH 98 0
DWIDTH 7 0
BBX 7 15 0 -3
BITMAP
00
00
3c
70
70
38
18
70
70
18
38
70
70
3c
00
ENDCHAR
STARTCHAR |
ENCODING 124
SWIDTH 70 0
DWIDTH 5 0
BBX 5 15 0 -3
BITMAP
00
00
00
30
30
30
30
30
30
30
30
30
30
30
00
ENDCHAR
STARTCHAR }
ENCODING 125
SWIDTH 98 0
DWIDTH 7 0
BBX 7 15 0 -3
BITMAP
00
00
78
1c
1c
38
30
1c
1c
30
38
1c
1c
78
00
ENDCHAR
STARTCHAR ~
ENCODING 126
SWIDTH 154 0
DWIDTH 11 0
BBX 11 15 0 -3
BITMAP
0000
0000
0000
0000
0000
0000
3cc0
6ec0
6780
0000
0000
0000
0000
0000
0000
ENDCHAR
ENDFONT
